<svg id="Слой_1" data-name="Слой 1" xmlns="http://www.w3.org/2000/svg" viewBox="0 0 1360.39 140"><defs><style>.cls-1{fill:#1d1d1b;}</style></defs><path class="cls-1" d="M392.4,450.5a29.19,29.19,0,0,1,29.2,29.2v42.8a29.36,29.36,0,0,1-29.2,29.2H314.8v38.8h-35v-140Zm-4,65.2V486.5a3,3,0,0,0-.8-2.1,2.56,2.56,0,0,0-2-.9H314.8v35h70.8a2.72,2.72,0,0,0,2-.8A2.68,2.68,0,0,0,388.4,515.7Z" transform="translate(-279.8 -450.5)"/><path class="cls-1" d="M598.2,450.5a33.46,33.46,0,0,1,33.4,33.4v73.2a33.46,33.46,0,0,1-33.4,33.4H513.4A33.46,33.46,0,0,1,480,557.1V483.9a33.46,33.46,0,0,1,33.4-33.4Zm.4,100v-60a6.91,6.91,0,0,0-2-4.9,6.61,6.61,0,0,0-5-2.1H520a7.18,7.18,0,0,0-7,7v60a7.18,7.18,0,0,0,7,7h71.6a6.61,6.61,0,0,0,5-2.1A6.89,6.89,0,0,0,598.6,550.5Z" transform="translate(-279.8 -450.5)"/><path class="cls-1" d="M806.6,450.5a29,29,0,0,1,29.2,29.2v19.4h-33V486.5a3.08,3.08,0,0,0-3-3H726a3.08,3.08,0,0,0-3,3v68a3.08,3.08,0,0,0,3,3h73.8a3.08,3.08,0,0,0,3-3V541.9h33v19.4a29,29,0,0,1-29.2,29.2H719.2A29,29,0,0,1,690,561.3V479.7a29,29,0,0,1,29.2-29.2Z" transform="translate(-279.8 -450.5)"/><path class="cls-1" d="M999.4,450.5h35v140h-35V484.9H929.6V590.5h-35v-140H999.4Z" transform="translate(-279.8 -450.5)"/><path class="cls-1" d="M1208.6,590.5l-9.6-21.6h-69.6l-9.6,21.6h-35l59-140h40.8l59,140Zm-65.4-52.4h42l-21-53.2Z" transform="translate(-279.8 -450.5)"/><path class="cls-1" d="M1406.8,450.5a29.19,29.19,0,0,1,29.2,29.2v42.8a29.36,29.36,0,0,1-29.2,29.2h-77.6v38.8h-35v-140Zm-4,65.2V486.5a3.08,3.08,0,0,0-.8-2.1,2.57,2.57,0,0,0-2-.9h-70.8v35H1400a2.73,2.73,0,0,0,2.8-2.8Z" transform="translate(-279.8 -450.5)"/><path class="cls-1" d="M1636.4,450.5l-75,68,78.8,72h-47l-63.6-56.4v56.4h-35.2v-140h35.2v52.6l59.8-52.6Z" transform="translate(-279.8 -450.5)"/></svg>