<svg id="Слой_1" data-name="Слой 1" xmlns="http://www.w3.org/2000/svg" viewBox="0 0 1360.39 140"><defs><style>.cls-1{fill:#fff;}</style></defs><path class="cls-1" d="M390.4,65a29.19,29.19,0,0,1,29.2,29.2V137a29.36,29.36,0,0,1-29.2,29.2H312.8V205h-35V65Zm-4,65.2V101a3,3,0,0,0-.8-2.1,2.56,2.56,0,0,0-2-.9H312.8v35h70.8a2.72,2.72,0,0,0,2-.8A2.68,2.68,0,0,0,386.4,130.23Z" transform="translate(-277.8 -65.03)"/><path class="cls-1" d="M596.2,65a33.46,33.46,0,0,1,33.4,33.4v73.2A33.46,33.46,0,0,1,596.2,205H511.4a33.46,33.46,0,0,1-33.4-33.4V98.43A33.46,33.46,0,0,1,511.4,65Zm.4,100V105a6.89,6.89,0,0,0-2-4.9,6.61,6.61,0,0,0-5-2.1H518a7.18,7.18,0,0,0-7,7v60a7.18,7.18,0,0,0,7,7h71.6a6.61,6.61,0,0,0,5-2.1A6.89,6.89,0,0,0,596.6,165Z" transform="translate(-277.8 -65.03)"/><path class="cls-1" d="M804.6,65a29,29,0,0,1,29.2,29.2v19.4h-33V101a3.08,3.08,0,0,0-3-3H724a3.08,3.08,0,0,0-3,3v68a3.08,3.08,0,0,0,3,3h73.8a3.08,3.08,0,0,0,3-3v-12.6h33v19.4A29,29,0,0,1,804.6,205H717.2a29,29,0,0,1-29.2-29.2V94.23A29,29,0,0,1,717.2,65Z" transform="translate(-277.8 -65.03)"/><path class="cls-1" d="M997.4,65h35V205h-35V99.43H927.6V205h-35V65H997.4Z" transform="translate(-277.8 -65.03)"/><path class="cls-1" d="M1206.6,205l-9.6-21.6h-69.6l-9.6,21.6h-35l59-140h40.8l59,140Zm-65.4-52.4h42l-21-53.2Z" transform="translate(-277.8 -65.03)"/><path class="cls-1" d="M1404.8,65a29.19,29.19,0,0,1,29.2,29.2V137a29.36,29.36,0,0,1-29.2,29.2h-77.6V205h-35V65Zm-4,65.2V101a3.08,3.08,0,0,0-.8-2.1,2.57,2.57,0,0,0-2-.9h-70.8v35H1398a2.73,2.73,0,0,0,2.8-2.8Z" transform="translate(-277.8 -65.03)"/><path class="cls-1" d="M1634.4,65l-75,68,78.8,72h-47l-63.6-56.4V205h-35.2V65h35.2v52.6L1587.4,65Z" transform="translate(-277.8 -65.03)"/></svg>